<?xml version="1.0" encoding="utf-8"?>
<!-- Generator: Adobe Illustrator 16.0.0, SVG Export Plug-In . SVG Version: 6.00 Build 0)  -->
<!DOCTYPE svg PUBLIC "-//W3C//DTD SVG 1.1//EN" "http://www.w3.org/Graphics/SVG/1.1/DTD/svg11.dtd">
<svg version="1.1" id="Layer_1" xmlns="http://www.w3.org/2000/svg" xmlns:xlink="http://www.w3.org/1999/xlink" x="0px" y="0px"
	 width="59.76px" height="60px" viewBox="0.12 0 59.76 60" enable-background="new 0.12 0 59.76 60" xml:space="preserve">
<g>
	<g>
		<g>
			<polygon fill="#126CA0" points="12.322,48.592 12.322,43.08 10.354,43.08 10.354,50.554 12.322,50.554 8.388,55.794 
				4.456,50.554 6.422,50.554 6.422,43.08 4.456,43.08 4.456,48.592 0.522,48.592 8.388,59.074 16.254,48.592 			"/>
		</g>
	</g>
	<g>
		<g>
			<g>
				<g>
					<path fill="#126CA0" d="M25.384,54.069v-2.008h-1.318v2.008c-0.766,0.273-1.319,1-1.319,1.857c0,1.092,0.888,1.977,1.978,1.977
						s1.976-0.887,1.976-1.977C26.7,55.069,26.148,54.348,25.384,54.069z M24.725,56.584c-0.364,0-0.659-0.294-0.659-0.657
						c0-0.362,0.295-0.661,0.659-0.661c0.363,0,0.659,0.299,0.659,0.661C25.384,56.29,25.088,56.584,24.725,56.584z"/>
				</g>
			</g>
			<g>
				<g>
					<path fill="#126CA0" d="M30.655,56.047V52.72h-1.318v3.327c-0.765,0.272-1.317,0.997-1.317,1.856
						c0,1.092,0.887,1.977,1.975,1.977c1.094,0,1.979-0.887,1.979-1.977C31.974,57.044,31.422,56.321,30.655,56.047z M29.996,58.564
						c-0.363,0-0.659-0.298-0.659-0.661c0-0.361,0.296-0.661,0.659-0.661c0.364,0,0.659,0.3,0.659,0.661
						C30.655,58.267,30.36,58.564,29.996,58.564z"/>
				</g>
			</g>
			<g>
				<g>
					<path fill="#126CA0" d="M35.927,54.069v-2.008h-1.319v2.008c-0.763,0.273-1.317,1-1.317,1.857c0,1.092,0.888,1.977,1.977,1.977
						c1.09,0,1.978-0.887,1.978-1.977C37.246,55.069,36.692,54.348,35.927,54.069z M35.268,56.584c-0.364,0-0.66-0.294-0.66-0.657
						c0-0.362,0.296-0.661,0.66-0.661c0.363,0,0.659,0.299,0.659,0.661C35.927,56.29,35.631,56.584,35.268,56.584z"/>
				</g>
			</g>
		</g>
		<g>
			<g>
				<path fill="#126CA0" d="M51.533,29.519C51.491,17.681,41.844,8.063,30,8.063c-11.78,0-21.374,9.503-21.532,21.243
					c0,0.003,0,0.005,0,0.009c0.013,0.327,0.099,2.503,0.366,4.165C10.67,43.508,19.451,51.134,30,51.134
					c10.524,0,19.278-7.587,21.15-17.575c0.256-1.567,0.358-3.511,0.378-3.958C51.533,29.56,51.533,29.535,51.533,29.519z
					 M26.395,10.951c-1.284,1.36-2.802,3.239-4.164,5.578c-1.665-0.809-2.76-1.721-3.35-2.308
					C21.083,12.626,23.625,11.485,26.395,10.951z M16.929,15.844c0.709,0.728,2.059,1.9,4.119,2.918
					c-1.269,2.713-2.203,5.929-2.389,9.571h-7.596C11.389,23.429,13.571,19.034,16.929,15.844z M16.928,43.353
					c-3.355-3.188-5.536-7.582-5.863-12.487h7.595c0.187,3.639,1.119,6.855,2.391,9.569C18.985,41.452,17.638,42.627,16.928,43.353z
					 M18.884,44.979c0.593-0.579,1.688-1.497,3.353-2.307c1.36,2.338,2.876,4.211,4.16,5.579
					C23.63,47.714,21.084,46.574,18.884,44.979z M28.732,46.994c-1.183-1.211-2.698-2.985-4.07-5.263
					c1.176-0.343,2.532-0.601,4.07-0.688V46.994z M28.732,30.865v7.642c-2.037,0.111-3.795,0.473-5.303,0.958
					c-1.173-2.454-2.047-5.346-2.236-8.602L28.732,30.865L28.732,30.865z M28.732,28.333h-7.539c0.19-3.255,1.063-6.148,2.236-8.604
					c1.504,0.492,3.266,0.848,5.303,0.957V28.333z M28.732,18.155c-1.542-0.093-2.896-0.344-4.072-0.687
					c1.376-2.279,2.889-4.056,4.072-5.265V18.155z M41.115,14.219c-0.589,0.58-1.692,1.493-3.349,2.304
					c-1.361-2.34-2.881-4.213-4.162-5.576C36.367,11.484,38.912,12.624,41.115,14.219z M31.265,12.203
					c1.185,1.21,2.696,2.985,4.072,5.262c-1.174,0.346-2.532,0.595-4.072,0.689V12.203z M31.265,28.333v-7.647
					c2.037-0.109,3.796-0.466,5.306-0.958c1.173,2.458,2.05,5.35,2.235,8.607L31.265,28.333L31.265,28.333z M31.265,30.865h7.541
					c-0.186,3.254-1.064,6.147-2.235,8.606c-1.506-0.492-3.269-0.854-5.306-0.965V30.865z M31.265,41.043
					c1.546,0.092,2.902,0.348,4.077,0.688c-1.381,2.277-2.893,4.052-4.077,5.263V41.043z M33.607,48.246
					c1.278-1.365,2.798-3.242,4.165-5.582c1.662,0.81,2.754,1.723,3.347,2.311C38.917,46.57,36.375,47.709,33.607,48.246z
					 M43.071,43.353c-0.709-0.73-2.06-1.9-4.122-2.918c1.272-2.711,2.204-5.927,2.39-9.569h7.598
					C48.612,35.771,46.428,40.164,43.071,43.353z M41.339,28.333c-0.186-3.642-1.117-6.854-2.39-9.571
					c2.063-1.021,3.413-2.191,4.122-2.918c3.354,3.19,5.539,7.585,5.865,12.489H41.339z"/>
			</g>
		</g>
	</g>
	<g>
		<g>
			<polygon fill="#126CA0" points="47.678,10.603 47.678,16.116 49.646,16.116 49.646,8.641 47.678,8.641 51.613,3.4 55.543,8.641 
				53.579,8.641 53.579,16.116 55.543,16.116 55.543,10.603 59.478,10.603 51.613,0.12 43.745,10.603 			"/>
		</g>
	</g>
</g>
</svg>
