<?xml version="1.0" encoding="utf-8"?>
<!-- Generator: Adobe Illustrator 16.0.0, SVG Export Plug-In . SVG Version: 6.00 Build 0)  -->
<!DOCTYPE svg PUBLIC "-//W3C//DTD SVG 1.1//EN" "http://www.w3.org/Graphics/SVG/1.1/DTD/svg11.dtd">
<svg version="1.1" id="Layer_1" xmlns="http://www.w3.org/2000/svg" xmlns:xlink="http://www.w3.org/1999/xlink" x="0px" y="0px"
	 width="60px" height="60px" viewBox="0 0 60 60" enable-background="new 0 0 60 60" xml:space="preserve">
<g>
	<g>
		<path fill="#126CA0" d="M57.097,13.548H34.839V4.839C34.839,2.171,32.668,0,30,0H4.839C2.171,0,0,2.171,0,4.839v50.322
			C0,57.829,2.171,60,4.839,60H30c2.668,0,4.839-2.171,4.839-4.839V40.645h-1.936v9.678H1.936V9.677h30.968v3.871h-8.71
			c-1.601,0-2.903,1.303-2.903,2.903v14.115l-8.143,8.143h43.949c1.601,0,2.903-1.302,2.903-2.902V16.452
			C60,14.851,58.697,13.548,57.097,13.548z M32.903,52.258v2.903c0,1.601-1.303,2.903-2.903,2.903H4.839
			c-1.601,0-2.903-1.303-2.903-2.903v-2.903H32.903z M1.936,7.742V4.839c0-1.601,1.303-2.903,2.903-2.903H30
			c1.601,0,2.903,1.303,2.903,2.903v2.903H1.936z M58.064,35.807c0,0.534-0.434,0.968-0.968,0.968H17.82l5.406-5.406V16.452
			c0-0.534,0.434-0.968,0.968-0.968h32.903c0.534,0,0.968,0.434,0.968,0.968V35.807z"/>
	</g>
</g>
<g>
	<g>
		<path fill="#126CA0" d="M50.322,25.161c-1.066,0-1.936-0.868-1.936-1.936s0.869-1.935,1.936-1.935
			c1.068,0,1.936,0.868,1.936,1.935h1.936c0-2.135-1.736-3.871-3.871-3.871s-3.871,1.736-3.871,3.871
			c0,2.135,1.736,3.871,3.871,3.871c1.068,0,1.936,0.868,1.936,1.936s-0.867,1.936-1.936,1.936c-1.066,0-1.936-0.868-1.936-1.936
			h-1.936c0,2.135,1.736,3.871,3.871,3.871s3.871-1.736,3.871-3.871S52.457,25.161,50.322,25.161z"/>
	</g>
</g>
<g>
	<g>
		<path fill="#126CA0" d="M30.968,25.161c-1.067,0-1.936-0.868-1.936-1.936s0.868-1.935,1.936-1.935s1.936,0.868,1.936,1.935h1.936
			c0-2.135-1.736-3.871-3.871-3.871s-3.871,1.736-3.871,3.871c0,2.135,1.736,3.871,3.871,3.871c1.067,0,1.936,0.868,1.936,1.936
			s-0.868,1.936-1.936,1.936s-1.936-0.868-1.936-1.936h-1.936c0,2.135,1.736,3.871,3.871,3.871s3.871-1.736,3.871-3.871
			S33.103,25.161,30.968,25.161z"/>
	</g>
</g>
<g>
	<g>
		<polygon fill="#126CA0" points="41.824,19.355 40.645,24.075 39.465,19.355 36.774,19.355 36.774,31.936 38.709,31.936 
			38.709,24.313 40.645,32.055 42.58,24.313 42.58,31.936 44.516,31.936 44.516,19.355 		"/>
	</g>
</g>
<g>
	<g>
		<rect x="13.548" y="54.193" fill="#126CA0" width="7.742" height="1.936"/>
	</g>
</g>
<g>
	<g>
		<rect x="29.032" y="40.645" fill="#126CA0" width="1.936" height="1.936"/>
	</g>
</g>
<g>
	<g>
		<rect x="25.161" y="40.645" fill="#126CA0" width="1.936" height="1.936"/>
	</g>
</g>
<g>
	<g>
		<rect x="21.291" y="40.645" fill="#126CA0" width="1.935" height="1.936"/>
	</g>
</g>
<g>
	<g>
		<rect x="17.419" y="40.645" fill="#126CA0" width="1.936" height="1.936"/>
	</g>
</g>
</svg>
