<?xml version="1.0" encoding="utf-8"?>
<!-- Generator: Adobe Illustrator 16.0.0, SVG Export Plug-In . SVG Version: 6.00 Build 0)  -->
<!DOCTYPE svg PUBLIC "-//W3C//DTD SVG 1.1//EN" "http://www.w3.org/Graphics/SVG/1.1/DTD/svg11.dtd">
<svg version="1.1" id="Layer_1" xmlns="http://www.w3.org/2000/svg" xmlns:xlink="http://www.w3.org/1999/xlink" x="0px" y="0px"
	 width="100px" height="100px" viewBox="0 0 100 100" enable-background="new 0 0 100 100" xml:space="preserve">
<g>
	<g>
		<path fill="#FFFFFF" d="M99.865,49.281c-4.813-13.074-30.669-14.404-39.604-14.469l-3.852-11.552
			c-0.215-0.635-0.709-1.144-1.341-1.361l-5.316-1.869l-4.278-9.982c-0.326-0.766-1.065-1.274-1.9-1.313
			c-1.004-0.048-2.03-0.074-3.061-0.074c-14.282,0-33.404,4.887-40.292,18.661C0.078,27.625,0,27.959,0,28.293v60.87
			c0,0.601,0.248,1.176,0.687,1.584c0.435,0.412,1.022,0.635,1.626,0.588L8.7,90.95V80.469c0-3.597,2.926-6.521,6.522-6.521
			c3.595,0,6.522,2.925,6.522,6.521v9.748l4.347-0.224V78.294c0-3.595,2.926-6.521,6.522-6.521c3.595,0,6.521,2.927,6.521,6.521
			v11.13c1.517-0.056,2.966-0.104,4.348-0.139V76.12c0-3.596,2.926-6.521,6.521-6.521c3.598,0,6.523,2.925,6.523,6.521v13.191
			c1.361,0.044,2.803,0.096,4.348,0.161V78.294c0-3.595,2.925-6.521,6.521-6.521c3.596,0,6.522,2.927,6.522,6.521v11.77l4.347,0.218
			v-9.813c0-3.597,2.927-6.523,6.522-6.523c3.595,0,6.521,2.927,6.521,6.523v10.505l6.396,0.359c0.039,0.005,0.078,0.005,0.12,0.005
			c0.554,0,1.088-0.213,1.491-0.596c0.437-0.408,0.684-0.983,0.684-1.579V50.032C100,49.776,99.956,49.524,99.865,49.281z
			 M21.739,62.068c0,1.157-0.904,2.108-2.057,2.17l-8.688,0.486c-0.039,0.005-0.082,0.005-0.126,0.005
			c-0.552,0-1.086-0.213-1.491-0.596c-0.435-0.41-0.683-0.982-0.683-1.578v-8.174c0-3.598,2.927-6.523,6.522-6.523
			c3.596,0,6.522,2.925,6.522,6.523V62.068z M21.739,38.154c0,1.157-0.904,2.109-2.057,2.17l-8.688,0.487
			c-0.039,0.004-0.082,0.004-0.126,0.004c-0.552,0-1.086-0.213-1.491-0.596c-0.435-0.408-0.683-0.983-0.683-1.579v-8.174
			c0-3.595,2.927-6.522,6.522-6.522c3.596,0,6.522,2.927,6.522,6.522V38.154z M39.13,61.237c0,1.172-0.921,2.127-2.086,2.174
			c-2.809,0.109-5.743,0.239-8.678,0.38c-0.035,0.005-0.069,0.005-0.104,0.005c-0.557,0-1.095-0.215-1.5-0.601
			c-0.431-0.414-0.674-0.983-0.674-1.574v-9.414c0-3.596,2.925-6.521,6.521-6.521c3.596,0,6.521,2.925,6.521,6.521V61.237z
			 M39.13,37.324c0,1.169-0.921,2.126-2.086,2.174c-2.809,0.109-5.743,0.239-8.678,0.378c-0.035,0.005-0.069,0.005-0.104,0.005
			c-0.557,0-1.095-0.213-1.5-0.601c-0.431-0.413-0.674-0.982-0.674-1.574v-9.414c0-3.595,2.925-6.521,6.521-6.521
			c3.596,0,6.521,2.926,6.521,6.521V37.324z M56.521,60.981c0,0.588-0.239,1.152-0.655,1.558c-0.405,0.394-0.954,0.615-1.518,0.615
			h-0.062c-3.571-0.095-5.626-0.081-8.591-0.017c-0.592-0.016-1.152-0.213-1.566-0.621c-0.417-0.409-0.652-0.971-0.652-1.553V50.032
			c0-3.594,2.926-6.521,6.522-6.521c3.596,0,6.521,2.927,6.521,6.521V60.981z M73.913,61.694c0,0.596-0.244,1.165-0.674,1.574
			c-0.404,0.387-0.944,0.601-1.501,0.601c-0.034,0-0.068,0-0.104-0.005c-2.974-0.144-5.908-0.277-8.682-0.396
			c-1.165-0.053-2.083-1.008-2.083-2.173v-9.089c0-3.596,2.927-6.521,6.521-6.521c3.596,0,6.522,2.925,6.522,6.521V61.694
			L73.913,61.694z M90.625,64.168c-0.403,0.383-0.938,0.596-1.494,0.596c-0.039,0-0.078,0-0.117-0.005L80.322,64.3
			c-1.157-0.062-2.061-1.014-2.061-2.171v-7.747c0-3.596,2.925-6.522,6.521-6.522c3.597,0,6.523,2.926,6.523,6.522v8.209l0,0
			C91.306,63.19,91.057,63.76,90.625,64.168z"/>
	</g>
</g>
</svg>
