<?xml version="1.0" encoding="utf-8"?>
<!-- Generator: Adobe Illustrator 16.0.0, SVG Export Plug-In . SVG Version: 6.00 Build 0)  -->
<!DOCTYPE svg PUBLIC "-//W3C//DTD SVG 1.1//EN" "http://www.w3.org/Graphics/SVG/1.1/DTD/svg11.dtd">
<svg version="1.1" id="Layer_1" xmlns="http://www.w3.org/2000/svg" xmlns:xlink="http://www.w3.org/1999/xlink" x="0px" y="0px"
	 width="60px" height="60px" viewBox="0 0 60 60" enable-background="new 0 0 60 60" xml:space="preserve">
<g>
	<g>
		<polygon fill="#FFFFFF" points="52.259,0 44.518,10.322 48.387,10.322 48.387,20.967 50.323,20.967 50.323,8.386 48.387,8.386 
			52.259,3.226 56.128,8.386 54.191,8.386 54.191,20.967 56.128,20.967 56.128,10.322 60,10.322 		"/>
	</g>
</g>
<g>
	<g>
		<polygon fill="#FFFFFF" points="11.614,49.68 11.614,39.032 9.677,39.032 9.677,51.611 11.614,51.611 7.742,56.771 3.872,51.611 
			5.806,51.611 5.806,39.032 3.872,39.032 3.872,49.68 0,49.68 7.742,60 15.485,49.68 		"/>
	</g>
</g>
<g>
	<g>
		<path fill="#FFFFFF" d="M23.227,50.202v-4.05h-1.936v4.05c-1.125,0.399-1.938,1.465-1.938,2.726c0,1.602,1.304,2.902,2.905,2.902
			c1.6,0,2.901-1.303,2.901-2.902C25.16,51.667,24.35,50.604,23.227,50.202z M22.259,53.895c-0.535,0-0.968-0.434-0.968-0.967
			s0.433-0.97,0.968-0.97c0.534,0,0.968,0.437,0.968,0.97S22.793,53.895,22.259,53.895z"/>
	</g>
</g>
<g>
	<g>
		<path fill="#FFFFFF" d="M30.968,53.105V47.12h-1.936v5.985c-1.123,0.397-1.936,1.465-1.936,2.725c0,1.602,1.303,2.902,2.902,2.902
			c1.602,0,2.904-1.303,2.904-2.902C32.902,54.57,32.091,53.505,30.968,53.105z M29.999,56.799c-0.533,0-0.967-0.436-0.967-0.969
			c0-0.532,0.434-0.969,0.967-0.969c0.535,0,0.969,0.437,0.969,0.969C30.968,56.363,30.534,56.799,29.999,56.799z"/>
	</g>
</g>
<g>
	<g>
		<path fill="#FFFFFF" d="M38.71,50.202v-4.05h-1.937v4.05c-1.123,0.399-1.936,1.465-1.936,2.726c0,1.602,1.303,2.902,2.9,2.902
			c1.603,0,2.902-1.303,2.902-2.902C40.645,51.667,39.834,50.604,38.71,50.202z M37.741,53.895c-0.534,0-0.968-0.434-0.968-0.967
			s0.434-0.97,0.968-0.97c0.536,0,0.969,0.437,0.969,0.97S38.277,53.895,37.741,53.895z"/>
	</g>
</g>
<g>
	<g>
		<path fill="#FFFFFF" d="M46.45,28.673c-0.033-9.043-7.399-16.391-16.451-16.391c-8.997,0-16.327,7.26-16.447,16.228
			c0,0.002,0,0.004,0,0.007c0.009,0.249,0.076,1.911,0.279,3.182c1.403,7.66,8.111,13.486,16.168,13.486
			c8.039,0,14.729-5.797,16.157-13.427c0.197-1.196,0.275-2.682,0.291-3.024C46.448,28.704,46.449,28.685,46.45,28.673z
			 M27.245,14.488c-0.981,1.04-2.14,2.475-3.181,4.262c-1.271-0.617-2.106-1.315-2.558-1.763
			C23.188,15.768,25.131,14.896,27.245,14.488z M20.015,18.226c0.541,0.556,1.572,1.452,3.147,2.229
			c-0.969,2.074-1.684,4.529-1.824,7.312h-5.805C15.783,24.02,17.45,20.663,20.015,18.226z M20.014,39.241
			c-2.563-2.437-4.23-5.793-4.48-9.54h5.804c0.142,2.781,0.854,5.236,1.825,7.311C21.586,37.791,20.556,38.688,20.014,39.241z
			 M21.509,40.482c0.452-0.443,1.29-1.142,2.56-1.76c1.039,1.784,2.197,3.217,3.178,4.258
			C25.133,42.572,23.189,41.701,21.509,40.482z M29.032,42.023c-0.904-0.924-2.061-2.28-3.11-4.021
			c0.899-0.264,1.935-0.456,3.11-0.525V42.023z M29.032,29.701v5.841c-1.556,0.083-2.899,0.356-4.051,0.731
			c-0.896-1.877-1.564-4.086-1.708-6.573L29.032,29.701L29.032,29.701z M29.032,27.767h-5.759c0.145-2.487,0.812-4.697,1.708-6.573
			c1.15,0.376,2.495,0.648,4.051,0.731V27.767z M29.032,19.991c-1.179-0.071-2.213-0.262-3.112-0.524
			c1.052-1.741,2.207-3.099,3.112-4.022V19.991z M38.491,16.985c-0.451,0.443-1.29,1.14-2.56,1.76
			c-1.039-1.787-2.197-3.218-3.18-4.259C34.867,14.895,36.811,15.767,38.491,16.985z M30.968,15.444
			c0.904,0.924,2.062,2.281,3.11,4.02c-0.9,0.264-1.934,0.455-3.11,0.526V15.444z M30.968,27.767v-5.841
			c1.556-0.084,2.899-0.356,4.052-0.732c0.896,1.877,1.563,4.087,1.707,6.574L30.968,27.767L30.968,27.767z M30.968,29.701h5.759
			c-0.145,2.486-0.813,4.697-1.707,6.574c-1.15-0.377-2.496-0.65-4.052-0.733V29.701z M30.968,37.477
			c1.179,0.071,2.216,0.265,3.112,0.525c-1.053,1.74-2.208,3.098-3.112,4.021V37.477z M32.755,42.979
			c0.979-1.041,2.14-2.475,3.183-4.263c1.271,0.62,2.105,1.316,2.558,1.765C36.813,41.699,34.869,42.57,32.755,42.979z
			 M39.986,39.241c-0.541-0.556-1.572-1.451-3.148-2.229c0.971-2.072,1.684-4.527,1.824-7.311h5.805
			C44.219,33.448,42.55,36.805,39.986,39.241z M38.662,27.767c-0.141-2.782-0.854-5.237-1.824-7.312
			c1.576-0.779,2.607-1.674,3.148-2.229c2.563,2.438,4.23,5.794,4.479,9.541H38.662z"/>
	</g>
</g>
</svg>
