<?xml version="1.0" encoding="utf-8"?>
<!-- Generator: Adobe Illustrator 16.0.0, SVG Export Plug-In . SVG Version: 6.00 Build 0)  -->
<!DOCTYPE svg PUBLIC "-//W3C//DTD SVG 1.1//EN" "http://www.w3.org/Graphics/SVG/1.1/DTD/svg11.dtd">
<svg version="1.1" id="Layer_1" xmlns="http://www.w3.org/2000/svg" xmlns:xlink="http://www.w3.org/1999/xlink" x="0px" y="0px"
	 width="100px" height="100px" viewBox="0 0 100 100" enable-background="new 0 0 100 100" xml:space="preserve">
<g>
	<g>
		<g>
			<path fill="#FFFFFF" d="M98.535,27.75c-0.809,0-1.465,0.656-1.465,1.466v1.464h-4.213v-1.465c0-0.809-0.654-1.465-1.465-1.465
				c-0.809,0-1.465,0.656-1.465,1.465v1.465h-4.211v-1.465c0-0.809-0.656-1.465-1.465-1.465c-0.811,0-1.465,0.656-1.465,1.465v1.465
				h-4.213v-1.465c0-0.809-0.656-1.465-1.465-1.465s-1.465,0.656-1.465,1.465v1.465h-4.213v-1.465c0-0.809-0.654-1.465-1.465-1.465
				c-0.809,0-1.465,0.656-1.465,1.465v1.465h-4.766V5.777c0-0.809-0.654-1.465-1.465-1.465c-0.809,0-1.465,0.655-1.465,1.465v13.184
				h-4.67v-2.652c0-3.384-2.754-6.137-6.137-6.137c-3.383,0-6.136,2.753-6.136,6.137v2.652H38.64V5.777
				c0-0.809-0.656-1.465-1.465-1.465S35.71,4.968,35.71,5.777V30.68h-4.212v-1.465c0-0.809-0.656-1.465-1.465-1.465
				s-1.465,0.656-1.465,1.465v1.465h-4.212v-1.465c0-0.809-0.656-1.465-1.465-1.465s-1.465,0.656-1.465,1.465v1.465h-4.212v-1.465
				c0-0.809-0.656-1.465-1.465-1.465s-1.465,0.656-1.465,1.465v1.465h-4.212v-1.465c0-0.809-0.656-1.465-1.465-1.465
				s-1.465,0.656-1.465,1.465v1.465H2.93v-1.465c0-0.809-0.656-1.465-1.465-1.465S0,28.406,0,29.215v64.844
				c0,0.81,0.656,1.465,1.465,1.465h20.392c0.201,0.104,0.428,0.164,0.669,0.164c0.242,0,0.469-0.061,0.669-0.164h8.003
				c0.201,0.104,0.428,0.164,0.669,0.164c0.241,0,0.468-0.061,0.669-0.164h34.923c0.201,0.104,0.428,0.164,0.67,0.164
				s0.469-0.061,0.67-0.164h8.002c0.201,0.104,0.428,0.164,0.67,0.164s0.469-0.061,0.67-0.164h20.393
				c0.809,0,1.465-0.655,1.465-1.465V29.215C100,28.406,99.344,27.75,98.535,27.75z M56.137,21.891h4.67v8.789h-4.67V21.891z
				 M46.794,16.309c0-1.769,1.438-3.207,3.207-3.207c1.767,0,3.207,1.438,3.207,3.207v2.652h-6.413V16.309z M46.794,21.891h6.413
				v8.789h-6.413V21.891z M38.64,21.891h5.225v8.789H38.64V21.891z M23.991,92.594v-10.09c0-1.769,1.438-3.207,3.207-3.207
				s3.207,1.438,3.207,3.207v10.09H23.991z M60.807,92.594H39.193V79.297h21.613V92.594z M60.807,76.367H39.193v-2.93h21.613V76.367
				z M76.01,92.594h-6.414v-10.09c0-1.769,1.439-3.207,3.207-3.207s3.207,1.438,3.207,3.207V92.594z M97.07,92.594H78.939v-10.09
				c0-3.384-2.752-6.137-6.137-6.137c-3.383,0-6.137,2.753-6.137,6.137v10.09h-2.928V73.438h28.938c0.809,0,1.465-0.656,1.465-1.465
				s-0.656-1.465-1.465-1.465H7.325c-0.809,0-1.465,0.656-1.465,1.465s0.656,1.465,1.465,1.465h28.939v19.156h-2.93v-10.09
				c0-3.384-2.753-6.137-6.136-6.137c-3.384,0-6.136,2.753-6.136,6.137v10.09H2.93V33.609h94.14V92.594z"/>
		</g>
	</g>
	<g>
		<g>
			<path fill="#FFFFFF" d="M92.676,36.539H7.325c-0.809,0-1.465,0.656-1.465,1.465c0,0.81,0.656,1.466,1.465,1.466h85.351
				c0.809,0,1.465-0.656,1.465-1.466C94.141,37.195,93.484,36.539,92.676,36.539z"/>
		</g>
	</g>
	<g>
		<g>
			<path fill="#FFFFFF" d="M11.996,48.258c-3.384,0-6.136,2.753-6.136,6.137v11.719c0,0.809,0.656,1.465,1.465,1.465h9.342
				c0.809,0,1.465-0.656,1.465-1.465V54.395C18.132,51.012,15.379,48.258,11.996,48.258z M15.202,64.648H8.79V54.395
				c0-1.768,1.438-3.207,3.207-3.207s3.206,1.439,3.206,3.207V64.648L15.202,64.648z"/>
		</g>
	</g>
	<g>
		<g>
			<path fill="#FFFFFF" d="M13.461,42.398h-2.93c-0.809,0-1.465,0.656-1.465,1.465c0,0.81,0.656,1.465,1.465,1.465h2.93
				c0.809,0,1.464-0.655,1.464-1.465C14.926,43.055,14.27,42.398,13.461,42.398z"/>
		</g>
	</g>
	<g>
		<g>
			<path fill="#FFFFFF" d="M27.198,48.258c-3.384,0-6.136,2.753-6.136,6.137v11.719c0,0.809,0.656,1.465,1.465,1.465h9.343
				c0.809,0,1.465-0.656,1.465-1.465V54.395C33.334,51.012,30.581,48.258,27.198,48.258z M23.991,64.648V54.395
				c0-1.768,1.438-3.207,3.207-3.207s3.207,1.439,3.207,3.207v10.254H23.991L23.991,64.648z"/>
		</g>
	</g>
	<g>
		<g>
			<path fill="#FFFFFF" d="M28.663,42.398h-2.93c-0.809,0-1.465,0.656-1.465,1.465c0,0.81,0.656,1.465,1.465,1.465h2.93
				c0.809,0,1.465-0.655,1.465-1.465C30.127,43.055,29.472,42.398,28.663,42.398z"/>
		</g>
	</g>
	<g>
		<g>
			<path fill="#FFFFFF" d="M42.399,48.258c-3.383,0-6.136,2.753-6.136,6.137v11.719c0,0.809,0.655,1.465,1.464,1.465h9.342
				c0.809,0,1.465-0.656,1.465-1.465V54.395C48.536,51.012,45.783,48.258,42.399,48.258z M45.606,64.648h-6.413V54.395
				c0-1.768,1.438-3.207,3.207-3.207c1.768,0,3.206,1.439,3.206,3.207V64.648z"/>
		</g>
	</g>
	<g>
		<g>
			<path fill="#FFFFFF" d="M43.864,42.398h-2.93c-0.809,0-1.465,0.656-1.465,1.465c0,0.81,0.656,1.465,1.465,1.465h2.93
				c0.809,0,1.465-0.655,1.465-1.465C45.329,43.055,44.673,42.398,43.864,42.398z"/>
		</g>
	</g>
	<g>
		<g>
			<path fill="#FFFFFF" d="M57.602,48.258c-3.385,0-6.137,2.753-6.137,6.137v11.719c0,0.809,0.656,1.465,1.465,1.465h9.342
				c0.811,0,1.465-0.656,1.465-1.465V54.395C63.736,51.012,60.984,48.258,57.602,48.258z M60.807,64.648h-6.412V54.395
				c0-1.768,1.439-3.207,3.207-3.207s3.205,1.439,3.205,3.207V64.648z"/>
		</g>
	</g>
	<g>
		<g>
			<path fill="#FFFFFF" d="M59.066,42.398h-2.93c-0.809,0-1.465,0.656-1.465,1.465c0,0.81,0.654,1.465,1.465,1.465h2.93
				c0.809,0,1.465-0.655,1.465-1.465C60.531,43.055,59.875,42.398,59.066,42.398z"/>
		</g>
	</g>
	<g>
		<g>
			<path fill="#FFFFFF" d="M72.803,48.258c-3.383,0-6.135,2.753-6.135,6.137v11.719c0,0.809,0.654,1.465,1.465,1.465h9.342
				c0.809,0,1.465-0.656,1.465-1.465V54.395C78.939,51.012,76.186,48.258,72.803,48.258z M76.01,64.648h-6.412V54.395
				c0-1.768,1.438-3.207,3.205-3.207s3.207,1.439,3.207,3.207V64.648z"/>
		</g>
	</g>
	<g>
		<g>
			<path fill="#FFFFFF" d="M74.268,42.398h-2.93c-0.809,0-1.465,0.656-1.465,1.465c0,0.81,0.656,1.465,1.465,1.465h2.93
				c0.809,0,1.465-0.655,1.465-1.465C75.732,43.055,75.076,42.398,74.268,42.398z"/>
		</g>
	</g>
	<g>
		<g>
			<path fill="#FFFFFF" d="M88.006,48.258c-3.385,0-6.137,2.753-6.137,6.137v11.719c0,0.809,0.656,1.465,1.465,1.465h9.342
				c0.809,0,1.465-0.656,1.465-1.465V54.395C94.141,51.012,91.389,48.258,88.006,48.258z M91.211,64.648h-6.412V54.395
				c0-1.768,1.438-3.207,3.207-3.207c1.768,0,3.205,1.439,3.205,3.207V64.648z"/>
		</g>
	</g>
	<g>
		<g>
			<path fill="#FFFFFF" d="M89.471,42.398h-2.932c-0.809,0-1.465,0.656-1.465,1.465c0,0.81,0.656,1.465,1.465,1.465h2.932
				c0.809,0,1.463-0.655,1.463-1.465C90.936,43.055,90.279,42.398,89.471,42.398z"/>
		</g>
	</g>
	<g>
		<g>
			<path fill="#FFFFFF" d="M16.667,76.367H7.325c-0.809,0-1.465,0.656-1.465,1.465v10.53c0,0.81,0.656,1.465,1.465,1.465h9.342
				c0.809,0,1.464-0.655,1.464-1.465v-10.53C18.132,77.023,17.476,76.367,16.667,76.367z M15.202,86.898H8.79v-7.602h6.413V86.898z"
				/>
		</g>
	</g>
	<g>
		<g>
			<path fill="#FFFFFF" d="M92.676,76.367h-9.342c-0.809,0-1.465,0.656-1.465,1.465v10.53c0,0.81,0.654,1.466,1.465,1.466h9.342
				c0.809,0,1.465-0.656,1.465-1.466v-10.53C94.141,77.023,93.484,76.367,92.676,76.367z M91.211,86.898h-6.412v-7.602h6.412V86.898
				z"/>
		</g>
	</g>
</g>
</svg>
