<?xml version="1.0" encoding="utf-8"?>
<!-- Generator: Adobe Illustrator 16.0.0, SVG Export Plug-In . SVG Version: 6.00 Build 0)  -->
<!DOCTYPE svg PUBLIC "-//W3C//DTD SVG 1.1//EN" "http://www.w3.org/Graphics/SVG/1.1/DTD/svg11.dtd">
<svg version="1.1" id="Layer_1" xmlns="http://www.w3.org/2000/svg" xmlns:xlink="http://www.w3.org/1999/xlink" x="0px" y="0px"
	 width="60px" height="60px" viewBox="0 0 60 60" enable-background="new 0 0 60 60" xml:space="preserve">
<path fill="#126CA0" d="M35.76,42.125v11.822H5.844V8.35h12.064c1.389-2.312,3.171-4.356,5.271-6.029L8.87,2.313
	c-3.184,0-5.773,2.596-5.773,5.786V54.2c0,3.198,2.59,5.8,5.774,5.8l23.863-0.014c3.183,0,5.772-2.596,5.772-5.786V42.121
	c-0.473,0.029-0.942,0.072-1.422,0.072C36.639,42.193,36.2,42.152,35.76,42.125z M25.398,57.482c0,0.456-0.372,0.829-0.828,0.829
	h-7.538c-0.456,0-0.827-0.373-0.827-0.829v-1.07c0-0.456,0.371-0.828,0.827-0.828h7.538c0.456,0,0.828,0.372,0.828,0.828V57.482z
	 M37.085,0C26.158,0,17.269,8.89,17.269,19.818s8.89,19.818,19.816,19.818c10.929,0,19.818-8.89,19.818-19.818S48.014,0,37.085,0z
	 M30.982,3.692c-1.328,1.448-2.467,3.345-3.338,5.575c-1.05-0.415-2.037-0.896-2.942-1.447C26.451,6.016,28.592,4.601,30.982,3.692z
	 M23.833,8.777c1.034,0.648,2.164,1.217,3.38,1.694c-0.858,2.592-1.364,5.555-1.426,8.708h-5.93
	C20.003,15.232,21.462,11.619,23.833,8.777z M19.857,20.457h5.93c0.062,3.153,0.567,6.116,1.426,8.708
	c-1.216,0.477-2.346,1.046-3.38,1.694C21.462,28.017,20.003,24.403,19.857,20.457z M24.702,31.815
	c0.905-0.551,1.893-1.033,2.942-1.447c0.871,2.23,2.01,4.128,3.338,5.575C28.592,35.034,26.451,33.62,24.702,31.815z M36.446,37.046
	c-0.871-0.032-1.727-0.119-2.561-0.276c-2.074-1.249-3.847-3.665-5.068-6.819c2.344-0.777,4.94-1.221,7.629-1.282V37.046z
	 M36.446,27.39c-2.829,0.062-5.569,0.533-8.049,1.356c-0.798-2.457-1.272-5.277-1.333-8.289h9.382V27.39z M36.446,19.179h-9.382
	c0.061-3.011,0.535-5.832,1.333-8.288c2.479,0.824,5.22,1.294,8.049,1.356V19.179z M36.446,10.968
	c-2.688-0.061-5.285-0.505-7.629-1.281c1.221-3.156,2.994-5.572,5.068-6.82c0.834-0.158,1.689-0.245,2.561-0.277V10.968z
	 M54.314,19.179h-5.931c-0.063-3.153-0.567-6.115-1.426-8.707c1.215-0.477,2.346-1.046,3.381-1.694
	C52.709,11.619,54.168,15.232,54.314,19.179z M49.469,7.82c-0.905,0.551-1.892,1.033-2.943,1.447
	c-0.869-2.23-2.01-4.127-3.337-5.576C45.58,4.601,47.72,6.016,49.469,7.82z M37.726,2.59c0.87,0.032,1.727,0.119,2.56,0.277
	c2.074,1.248,3.848,3.664,5.067,6.82c-2.344,0.776-4.94,1.221-7.627,1.282V2.59z M37.726,12.247
	c2.828-0.062,5.568-0.532,8.048-1.356c0.797,2.457,1.271,5.277,1.332,8.288h-9.38V12.247z M37.726,20.457h9.38
	c-0.061,3.012-0.535,5.832-1.332,8.289c-2.479-0.823-5.22-1.294-8.048-1.356V20.457z M40.285,36.77
	c-0.833,0.157-1.689,0.244-2.56,0.276v-8.378c2.687,0.062,5.283,0.505,7.626,1.282C44.133,33.105,42.358,35.521,40.285,36.77z
	 M43.188,35.943c1.327-1.447,2.467-3.345,3.337-5.575c1.051,0.415,2.038,0.896,2.942,1.447C47.72,33.62,45.58,35.035,43.188,35.943z
	 M50.339,30.858c-1.035-0.647-2.166-1.217-3.381-1.694c0.858-2.592,1.363-5.555,1.426-8.708h5.931
	C54.168,24.403,52.709,28.017,50.339,30.858z"/>
</svg>
