<?xml version="1.0" encoding="utf-8"?>
<!-- Generator: Adobe Illustrator 16.0.0, SVG Export Plug-In . SVG Version: 6.00 Build 0)  -->
<!DOCTYPE svg PUBLIC "-//W3C//DTD SVG 1.1//EN" "http://www.w3.org/Graphics/SVG/1.1/DTD/svg11.dtd">
<svg version="1.1" id="Layer_1" xmlns="http://www.w3.org/2000/svg" xmlns:xlink="http://www.w3.org/1999/xlink" x="0px" y="0px"
	 width="60px" height="60px" viewBox="0 0 60 60" enable-background="new 0 0 60 60" xml:space="preserve">
<g id="NewGroupe1_53_">
	<g id="NewGroup53-1">
		<g>
			<polygon fill="#FFFFFF" points="13.009,46.205 13.009,46.205 28.788,55.537 28.788,36.366 27.991,35.943 13.009,26.795 
				9.799,24.48 9.799,24.523 9.793,24.517 9.799,44.152 			"/>
			<polygon fill="#FFFFFF" points="31.953,35.879 31.08,36.352 31.08,55.563 47.534,46.205 47.534,46.205 50.744,44.152 
				50.75,24.517 50.744,24.523 50.744,24.48 			"/>
			<polygon fill="#FFFFFF" points="35.33,17.793 46.003,23.377 40.626,26.669 29.934,33.214 13.865,23.377 24.539,17.793 
				23.332,16.184 9.919,23.202 29.934,35.454 43.251,27.302 49.95,23.202 36.537,16.184 			"/>
			<polyline fill="#FFFFFF" points="31.375,12.188 51.068,22.325 60,18.248 31.375,4.438 31.375,4.438 			"/>
			<polyline fill="#FFFFFF" points="28.625,12.188 8.931,22.325 0,18.248 28.625,4.438 28.625,4.438 			"/>
		</g>
	</g>
</g>
</svg>
