<?xml version="1.0" encoding="utf-8"?>
<!-- Generator: Adobe Illustrator 16.0.0, SVG Export Plug-In . SVG Version: 6.00 Build 0)  -->
<!DOCTYPE svg PUBLIC "-//W3C//DTD SVG 1.1//EN" "http://www.w3.org/Graphics/SVG/1.1/DTD/svg11.dtd">
<svg version="1.1" id="Layer_1" xmlns="http://www.w3.org/2000/svg" xmlns:xlink="http://www.w3.org/1999/xlink" x="0px" y="0px"
	 width="60px" height="60px" viewBox="0 0 60 60" enable-background="new 0 0 60 60" xml:space="preserve">
<g>
	<g>
		<path fill="#126CA0" d="M48.215,59.995c-2.496,0-5.511-0.625-8.823-1.875c-7.271-2.742-15.176-8.158-22.267-15.248
			c-7.091-7.091-12.507-15-15.249-22.271C-0.62,13.992-0.626,8.568,1.856,6.086c0.359-0.359,0.725-0.743,1.1-1.136
			c2.266-2.381,4.887-5.087,8.219-4.939c2.341,0.097,4.606,1.55,6.931,4.435c6.853,8.525,3.763,11.564,0.188,15.087l-0.633,0.625
			c-0.585,0.585-1.693,3.293,8.596,13.581c3.362,3.359,6.222,5.817,8.509,7.305c1.442,0.936,4.018,2.349,5.072,1.293l0.636-0.642
			c3.519-3.571,6.558-6.651,15.081,0.2c2.888,2.32,4.338,4.586,4.436,6.929c0.139,3.394-2.564,5.961-4.95,8.225
			c-0.392,0.374-0.774,0.734-1.13,1.09C52.671,59.376,50.7,59.995,48.215,59.995z M10.934,2.021c-2.409,0-4.588,2.292-6.516,4.318
			C4.029,6.746,3.652,7.144,3.283,7.513c-1.849,1.847-1.659,6.706,0.48,12.377c2.644,7.008,7.896,14.664,14.789,21.557
			c6.893,6.893,14.545,12.144,21.552,14.786c5.672,2.141,10.53,2.327,12.379,0.477c0.37-0.367,0.763-0.742,1.167-1.126
			c2.074-1.972,4.425-4.203,4.324-6.681c-0.071-1.701-1.311-3.531-3.686-5.438c-7.102-5.706-9.086-3.688-12.379-0.354l-0.646,0.651
			c-1.567,1.575-4.124,1.231-7.599-1.029c-2.402-1.562-5.375-4.11-8.836-7.569l0,0c-8.537-8.538-11.27-13.759-8.596-16.435
			l0.644-0.638c3.346-3.293,5.363-5.281-0.345-12.383c-1.909-2.371-3.739-3.61-5.44-3.683C11.039,2.022,10.984,2.021,10.934,2.021z"
			/>
	</g>
	<g>
		<path fill="#126CA0" d="M48.567,24.797c-0.127,0-0.254-0.024-0.379-0.074c-0.516-0.21-0.767-0.797-0.555-1.312
			c1.283-3.164,0.549-6.77-1.864-9.185c-2.479-2.48-6.292-3.168-9.49-1.731c-0.503,0.228-1.105,0.006-1.333-0.502
			c-0.23-0.509-0.007-1.106,0.502-1.334c3.957-1.792,8.677-0.93,11.748,2.143c2.988,2.988,3.895,7.45,2.307,11.368
			C49.345,24.558,48.966,24.797,48.567,24.797z"/>
		<path fill="#126CA0" d="M57.575,28.454c-0.127,0-0.254-0.024-0.379-0.075c-0.519-0.21-0.767-0.797-0.555-1.312
			c2.754-6.794,1.186-14.533-3.998-19.716c-5.322-5.323-13.509-6.816-20.369-3.715c-0.509,0.222-1.105,0.004-1.335-0.504
			c-0.229-0.511-0.004-1.108,0.503-1.338c7.621-3.442,16.714-1.786,22.629,4.128c5.758,5.759,7.502,14.355,4.438,21.901
			C58.353,28.216,57.974,28.454,57.575,28.454z"/>
	</g>
</g>
</svg>
