<?xml version="1.0" encoding="utf-8"?>
<!-- Generator: Adobe Illustrator 16.0.0, SVG Export Plug-In . SVG Version: 6.00 Build 0)  -->
<!DOCTYPE svg PUBLIC "-//W3C//DTD SVG 1.1//EN" "http://www.w3.org/Graphics/SVG/1.1/DTD/svg11.dtd">
<svg version="1.1" id="Layer_1" xmlns="http://www.w3.org/2000/svg" xmlns:xlink="http://www.w3.org/1999/xlink" x="0px" y="0px"
	 width="100px" height="100px" viewBox="0 0 100 100" enable-background="new 0 0 100 100" xml:space="preserve">
<g>
	<path fill="#FFFFFF" d="M95.294,85.365v-8.301c0.675-0.289,3.769-1.578,3.769-3.438c0-2.049,0-10.391,0-10.391h0.491v-1.116h-0.314
		c0.036-0.238,0.056-0.436,0.056-0.593c0-0.821-0.68-1.795-1.465-2.16c0.04-0.062,0.065-0.116,0.065-0.178
		c0-0.208-0.269-0.405-0.614-0.446c0.133-0.07,0.244-0.279,0.244-0.496c0-0.229-0.106-0.406-0.233-0.508v-1.096h-0.314v1.111
		c-0.142,0.091-0.249,0.278-0.249,0.496c0,0.219,0.107,0.426,0.26,0.498c-0.371,0.04-0.64,0.238-0.64,0.445
		c0,0.061,0.041,0.117,0.081,0.178c-0.461,0.219-0.861,0.613-1.125,1.07V41.993h0.07l2.652-2.505h0.137v-4.077h-2.859V32.13
		l2.656-3.306v-5.786h0.047v-4.589h-0.047v-0.03h0.482v-1.116h-0.32c0.031-0.238,0.062-0.436,0.062-0.593
		c0-0.832-0.669-1.795-1.466-2.16c0.046-0.066,0.066-0.127,0.066-0.178c0-0.228-0.279-0.406-0.619-0.456
		c0.137-0.076,0.238-0.274,0.238-0.492c0-0.228-0.102-0.416-0.229-0.497v-1.11h-0.309v1.116c-0.137,0.081-0.254,0.269-0.254,0.497
		c0,0.218,0.107,0.416,0.264,0.492c-0.369,0.051-0.639,0.228-0.639,0.457c0,0.05,0.025,0.111,0.076,0.177
		c-0.791,0.36-1.476,1.329-1.476,2.16c0,0.157,0.046,0.355,0.081,0.593h-0.294v1.121h0.527v4.823h-0.741v-1.623l-0.74-0.999h-0.76
		l-0.888,0.994v1.623H88.91v-1.623l-0.74-0.999h-0.771l-0.861,0.999v1.623h-2.11v-1.623l-0.74-0.999h-0.761l-0.861,0.999v1.623
		h-2.115v-1.623l-0.745-0.999h-0.767l-0.852,0.999v1.623h-2.114v-1.623l-0.74-0.999h-0.771l-0.863,0.999v1.623h-2.099v-1.623
		l-0.745-0.999h-0.776l-0.867,0.999v1.623h-2.12v-1.623l-0.74-0.999h-0.76l-0.862,0.999v1.623h-0.842v-4.828h0.522v-1.116H63.52
		c0.045-0.238,0.065-0.436,0.065-0.593c0-0.832-0.659-1.795-1.466-2.16c0.047-0.066,0.082-0.127,0.082-0.178
		c0-0.228-0.284-0.406-0.639-0.456c0.151-0.076,0.268-0.274,0.268-0.492c0-0.228-0.105-0.416-0.258-0.497v-1.11h-0.305v1.116
		c-0.142,0.081-0.254,0.269-0.254,0.497c0,0.218,0.112,0.416,0.264,0.492c-0.354,0.051-0.629,0.228-0.629,0.457
		c0,0.05,0.025,0.111,0.072,0.177c-0.797,0.36-1.467,1.329-1.467,2.16c0,0.157,0.021,0.355,0.057,0.593h-0.335v1.121h0.507v10.401
		l2.521,3.489v3.108h-2.88v4.072h0.156l2.643,2.505h0.081v23.089H59.33v2.099h-4.117v-2.099h-4.492v2.099h-4.133v-2.099h-4.473
		v2.099h-4.128v-2.099h-4.483v2.099h-4.123v-2.099h-4.473v2.099h-2.52c0-0.942,0-1.567,0-1.567h0.497v-1.13h-0.35
		c0.045-0.229,0.076-0.437,0.076-0.583c0-0.832-0.679-1.785-1.47-2.171c0.051-0.061,0.071-0.106,0.071-0.177
		c0-0.219-0.279-0.396-0.634-0.437c0.152-0.081,0.259-0.279,0.259-0.497c0-0.219-0.106-0.416-0.254-0.486v-1.121h-0.299v1.131
		c-0.147,0.066-0.239,0.264-0.239,0.481s0.107,0.416,0.249,0.497c-0.35,0.03-0.619,0.218-0.619,0.436
		c0,0.062,0.01,0.117,0.071,0.178c-0.796,0.386-1.471,1.339-1.471,2.171c0,0.147,0.025,0.354,0.066,0.583h-0.294v1.131h0.512v1.557
		h-1.481v-2.1h-4.574v2.1H8.956v-2.1H5.659v-0.583H5.385c0.031-0.228,0.061-0.437,0.061-0.583c0-0.832-0.669-1.785-1.465-2.17
		c0.041-0.062,0.066-0.107,0.066-0.178c0-0.219-0.269-0.396-0.629-0.437c0.157-0.086,0.253-0.284,0.253-0.502
		s-0.102-0.415-0.249-0.487v-1.125H3.129v1.131c-0.147,0.066-0.249,0.264-0.249,0.481s0.111,0.416,0.259,0.497
		c-0.36,0.03-0.629,0.218-0.629,0.436c0,0.062,0.025,0.117,0.066,0.178c-0.801,0.386-1.46,1.339-1.46,2.171
		c0,0.147,0.03,0.354,0.066,0.583h-0.34v1.131h0.487c0,0,0,8.321,0,10.4c0,1.375,1.714,2.444,2.875,3.022v6.318H0v2.814h100V85.37
		L95.294,85.365L95.294,85.365z M5.31,67.181H5.157v-1.562H5.31V67.181z M79.346,26.633c1.455,0,2.627,1.161,2.662,2.606h0.021
		v5.903h-5.319v-5.746c0-0.03-0.025-0.071-0.025-0.091C76.693,27.819,77.875,26.633,79.346,26.633z M72.281,43.631
		c0-1.476,1.192-2.657,2.658-2.657c1.455,0,2.621,1.161,2.667,2.606h0.015v5.913h-5.309v-5.755
		C72.313,43.697,72.281,43.676,72.281,43.631z M79.813,84.088h-6.115V77.49c0-0.051-0.016-0.092-0.016-0.117
		c0-1.693,1.363-3.053,3.047-3.053c1.669,0,3.028,1.339,3.063,2.992h0.03L79.813,84.088L79.813,84.088z M85.68,49.488h-5.33v-5.75
		c0-0.041-0.02-0.061-0.02-0.106c0-1.476,1.182-2.657,2.656-2.657c1.44,0,2.622,1.161,2.643,2.606h0.045L85.68,49.488L85.68,49.488z
		"/>
</g>
</svg>
