<?xml version="1.0" encoding="utf-8"?>
<!-- Generator: Adobe Illustrator 16.0.0, SVG Export Plug-In . SVG Version: 6.00 Build 0)  -->
<!DOCTYPE svg PUBLIC "-//W3C//DTD SVG 1.1//EN" "http://www.w3.org/Graphics/SVG/1.1/DTD/svg11.dtd">
<svg version="1.1" id="Layer_1" xmlns="http://www.w3.org/2000/svg" xmlns:xlink="http://www.w3.org/1999/xlink" x="0px" y="0px"
	 width="60px" height="60px" viewBox="0 0 60 60" enable-background="new 0 0 60 60" xml:space="preserve">
<g>
	<path fill="#FFFFFF" d="M46.713,25l10.61-15.433c0.21-0.306,0.231-0.703,0.061-1.032c-0.173-0.328-0.514-0.534-0.885-0.534H26.5v-4
		c0-0.553-0.447-1-1-1H4.501v-2c0-0.553-0.447-1-1-1c-0.553,0-1,0.447-1,1v3V33v25.999c0,0.553,0.447,1,1,1c0.553,0,1-0.447,1-1V34
		h11.025c-0.635,0.838-1.026,1.87-1.026,3c0,2.757,2.243,5,5,5h36.999c0.371,0,0.712-0.206,0.885-0.534
		c0.175-0.329,0.149-0.727-0.061-1.032L46.713,25z M4.501,5.001H24.5v4V32h-5h-15L4.501,5.001L4.501,5.001z M19.5,40
		c-1.654,0-3-1.346-3-3s1.346-3,3-3h6c0.553,0,1-0.447,1-1V10.001h28.1l-9.925,14.433c-0.233,0.341-0.233,0.792,0,1.133L54.6,40
		H19.5z"/>
</g>
</svg>
