<?xml version="1.0" encoding="utf-8"?>
<!-- Generator: Adobe Illustrator 16.0.0, SVG Export Plug-In . SVG Version: 6.00 Build 0)  -->
<!DOCTYPE svg PUBLIC "-//W3C//DTD SVG 1.1//EN" "http://www.w3.org/Graphics/SVG/1.1/DTD/svg11.dtd">
<svg version="1.1" id="Layer_1" xmlns="http://www.w3.org/2000/svg" xmlns:xlink="http://www.w3.org/1999/xlink" x="0px" y="0px"
	 width="60px" height="60px" viewBox="0 0 60 60" enable-background="new 0 0 60 60" xml:space="preserve">
<g>
	<g>
		<g>
			<path fill="#FFFFFF" d="M27.729,21.889c7.449,0,13.489,4.285,13.489,9.569c0,5.287-6.04,9.571-13.489,9.571
				c-1.997,0-3.894-0.315-5.6-0.87l-5.091,3.512l0.947-5.604c-2.312-1.719-3.731-4.047-3.731-6.608
				C14.254,26.174,20.29,21.889,27.729,21.889L27.729,21.889z M27.729,18.929c-4.206,0-8.197,1.191-11.242,3.354
				c-3.302,2.341-5.197,5.688-5.197,9.176c0,2.874,1.229,5.579,3.496,7.768l-0.663,3.951c-0.199,1.174,0.323,2.352,1.327,2.992
				c0.483,0.305,1.037,0.46,1.589,0.46c0.587,0,1.176-0.174,1.677-0.521l3.947-2.721c1.634,0.397,3.333,0.601,5.066,0.601
				c4.212,0,8.203-1.188,11.25-3.349c3.308-2.346,5.194-5.691,5.194-9.182c0-3.488-1.888-6.835-5.194-9.176
				C35.932,20.12,31.941,18.929,27.729,18.929L27.729,18.929z"/>
			<g>
				<circle fill="#FFFFFF" cx="21.652" cy="31.509" r="2.235"/>
				<path fill="#FFFFFF" d="M30.298,31.509c0-1.236-0.996-2.234-2.231-2.234c-1.234,0-2.239,0.998-2.239,2.234
					c0,1.234,1.005,2.236,2.239,2.236C29.302,33.745,30.298,32.743,30.298,31.509z"/>
				<circle fill="#FFFFFF" cx="34.479" cy="31.509" r="2.235"/>
			</g>
		</g>
		<g>
			<path fill="#FFFFFF" d="M44.631,60h-33.8C5.14,60,0.51,55.37,0.51,49.68V15.879c0-5.691,4.63-10.321,10.321-10.321h24.89
				c0.707,0,1.28,0.573,1.28,1.281s-0.573,1.281-1.28,1.281h-24.89c-4.278,0-7.759,3.48-7.759,7.759V49.68
				c0,4.277,3.48,7.758,7.759,7.758h33.8c4.278,0,7.76-3.479,7.76-7.758V23.659c0-0.707,0.572-1.28,1.28-1.28
				c0.707,0,1.281,0.573,1.281,1.28V49.68C54.952,55.37,50.322,60,44.631,60L44.631,60z"/>
		</g>
	</g>
	<g>
		<path fill="#FFFFFF" d="M49.71,0c-5.401,0-9.78,4.379-9.78,9.78c0,5.401,4.379,9.78,9.78,9.78s9.78-4.379,9.78-9.78
			C59.49,4.379,55.111,0,49.71,0z M53.234,14.776h-6.74v-1.199l3.268-3.775c0.529-0.627,0.898-1.144,1.104-1.55
			c0.205-0.407,0.31-0.797,0.31-1.171c0-0.444-0.125-0.807-0.374-1.087c-0.248-0.279-0.604-0.42-1.068-0.42
			c-0.541,0-0.955,0.175-1.241,0.524c-0.287,0.349-0.433,0.789-0.433,1.32h-1.687l-0.015-0.043
			c-0.023-0.895,0.271-1.652,0.888-2.271c0.614-0.62,1.442-0.93,2.485-0.93c1,0,1.781,0.268,2.345,0.804
			c0.562,0.536,0.844,1.239,0.844,2.11c0,0.589-0.157,1.142-0.471,1.658c-0.314,0.516-0.829,1.208-1.548,2.074l-2.202,2.526
			l0.015,0.036h4.521V14.776z"/>
	</g>
</g>
</svg>
