<?xml version="1.0" encoding="utf-8"?>
<!-- Generator: Adobe Illustrator 16.0.0, SVG Export Plug-In . SVG Version: 6.00 Build 0)  -->
<!DOCTYPE svg PUBLIC "-//W3C//DTD SVG 1.1//EN" "http://www.w3.org/Graphics/SVG/1.1/DTD/svg11.dtd">
<svg version="1.1" id="Layer_1" xmlns="http://www.w3.org/2000/svg" xmlns:xlink="http://www.w3.org/1999/xlink" x="0px" y="0px"
	 width="60px" height="60px" viewBox="0 0 60 60" enable-background="new 0 0 60 60" xml:space="preserve">
<g>
	<path fill="#126CA0" d="M32.768,49.239c-0.003-0.002-0.006-0.003-0.01-0.005l-6.396-2.618c-0.024-0.01-0.048-0.019-0.073-0.027
		c-0.152-0.05-0.315-0.074-0.484-0.074c-0.978,0-2.275,0.94-2.847,1.807c-0.143,0.034-0.304,0.051-0.48,0.051
		c-2.177,0-5.946-2.47-8.333-4.856c-2.674-2.674-5.047-6.438-4.467-8.444c0.523-0.335,0.948-0.872,1.133-1.128
		c0.421-0.583,0.869-1.439,0.615-2.217c-0.008-0.025-0.017-0.05-0.026-0.073l-2.619-6.396c-0.025-0.061-0.056-0.12-0.091-0.175
		c-0.247-0.381-0.748-0.836-1.737-0.836c-1.896,0-5.056,1.842-5.437,2.068c-0.55,0.32-1.246,1.036-1.455,2.628
		c-0.269,2.046,0.368,4.808,1.793,7.776c1.748,3.64,4.539,7.39,8.296,11.146c7.476,7.477,14.41,10.14,18.407,10.14
		c2.048,0,2.916-0.684,3.283-1.291c0.557-0.751,2.792-3.941,2.238-5.989C33.892,50.035,33.438,49.521,32.768,49.239z M30.092,55.486
		c-0.025,0.033-0.048,0.068-0.069,0.104c-0.096,0.081-0.529,0.279-1.466,0.279c-3.406,0-9.875-2.491-16.897-9.514
		C3.473,38.169,1.847,31.732,2.177,29.22c0.092-0.704,0.311-1.002,0.413-1.061c0.003-0.002,0.007-0.004,0.011-0.007
		c1.229-0.731,3.377-1.758,4.333-1.771l2.406,5.876c-0.125,0.309-0.569,0.873-0.813,1.017l-0.02,0.007
		c-0.272,0.089-0.498,0.284-0.625,0.541c-1.576,3.185,1.576,8.025,4.754,11.203c1.896,1.896,6.394,5.481,9.843,5.481
		c0.638,0,1.215-0.125,1.715-0.373c0.257-0.128,0.452-0.353,0.541-0.625l0.006-0.021c0.144-0.244,0.708-0.688,1.017-0.813
		l6.185,2.532c0.062,0.026,0.063,0.033,0.074,0.073C32.211,51.997,31.178,54.033,30.092,55.486z"/>
	<path fill="#126CA0" d="M41.129,1.995c-10.405,0-18.87,8.465-18.87,18.87c0,3.65,1.044,7.191,3.02,10.242
		c1.74,2.688,4.121,4.88,6.925,6.387l-3,7.548c-0.189,0.477-0.013,1.021,0.419,1.296c0.176,0.111,0.375,0.166,0.572,0.166
		c0.287,0,0.571-0.115,0.779-0.337l6.389-6.809c1.236,0.25,2.5,0.377,3.766,0.377C51.534,39.735,60,31.271,60,20.865
		S51.534,1.995,41.129,1.995z M41.129,37.601c-1.309,0-2.615-0.152-3.882-0.454c-0.372-0.088-0.764,0.029-1.025,0.309l-2.957,3.151
		l1.284-3.231c0.208-0.524-0.027-1.12-0.537-1.36c-5.843-2.75-9.618-8.697-9.618-15.149c0-9.228,7.507-16.735,16.735-16.735
		c9.229,0,16.736,7.507,16.736,16.735C57.865,30.093,50.357,37.601,41.129,37.601z"/>
	<path fill="#126CA0" d="M50.307,25.199c-0.44-0.279-1.023-0.147-1.303,0.293c-1.589,2.515-4.312,4.017-7.282,4.017
		c-3.693,0-6.85-2.338-8.069-5.611h15.209c0.521,0,0.944-0.423,0.944-0.944s-0.423-0.944-0.944-0.944H33.185
		c-0.047-0.363-0.071-0.732-0.071-1.108c0-0.263,0.013-0.522,0.036-0.779h15.712c0.521,0,0.944-0.423,0.944-0.944
		c0-0.522-0.423-0.944-0.944-0.944H33.537c1.126-3.445,4.369-5.94,8.185-5.94c2.97,0,5.691,1.5,7.28,4.014
		c0.279,0.441,0.862,0.572,1.304,0.293c0.44-0.279,0.571-0.862,0.293-1.303c-1.938-3.063-5.256-4.893-8.877-4.893
		c-4.866,0-8.969,3.329-10.152,7.829h-2.296c-0.521,0-0.944,0.422-0.944,0.944c0,0.521,0.423,0.944,0.944,0.944h1.98
		c-0.019,0.257-0.029,0.517-0.029,0.779c0,0.374,0.021,0.744,0.059,1.108h-2.01c-0.521,0-0.944,0.423-0.944,0.944
		s0.423,0.944,0.944,0.944h2.389c1.292,4.333,5.313,7.5,10.06,7.5c3.622,0,6.941-1.831,8.879-4.896
		C50.879,26.061,50.748,25.478,50.307,25.199z"/>
</g>
</svg>
