<?xml version="1.0" encoding="utf-8"?>
<!-- Generator: Adobe Illustrator 16.0.0, SVG Export Plug-In . SVG Version: 6.00 Build 0)  -->
<!DOCTYPE svg PUBLIC "-//W3C//DTD SVG 1.1//EN" "http://www.w3.org/Graphics/SVG/1.1/DTD/svg11.dtd">
<svg version="1.1" id="Layer_1" xmlns="http://www.w3.org/2000/svg" xmlns:xlink="http://www.w3.org/1999/xlink" x="0px" y="0px"
	 width="100px" height="100px" viewBox="0 0 100 100" enable-background="new 0 0 100 100" xml:space="preserve">
<g>
	<path fill="#FFFFFF" d="M90.088,95.982V91.74h-2.254l-6.465-23.129c2.545-1.242,4.291-3.826,4.291-6.842
		c0-3.285-2.086-6.071-4.992-7.145l2.73-15.119c4.053-0.821,7.078-4.396,7.078-8.671c0-4.905-3.973-8.874-8.867-8.874
		c-1.992,0-3.814,0.673-5.293,1.773L58.443,11.528c0.389-0.985,0.602-2.031,0.602-3.137C59.051,3.75,55.301,0,50.682,0
		c-4.637,0-8.392,3.755-8.392,8.392c0,1.062,0.225,2.119,0.597,3.06l-17.9,12.24c-1.467-1.068-3.263-1.713-5.211-1.713
		c-0.039,0-0.083-0.033-0.115-0.033c-0.115,0-0.208,0.055-0.317,0.066c-4.702,0.203-8.463,4.051-8.463,8.83
		c0,4.182,2.901,7.675,6.787,8.594l2.737,15.114c-3.016,1.018-5.189,3.848-5.189,7.215c0,2.578,1.287,4.855,3.257,6.234
		L11.843,91.74H9.527v4.242H6.123V100h87.754v-4.018H90.088L90.088,95.982z M80.707,39.654L78.084,54.16h-0.033
		c-2.008,0-3.826,0.771-5.172,2.042l-14.508-8.042L74.68,36.37C76.146,38.165,78.281,39.408,80.707,39.654z M57.496,43.426
		l7.938-3.575l-7.643,5.529C57.787,44.69,57.672,44.039,57.496,43.426z M51.256,63.373c0.115-0.011,0.191-0.011,0.289-0.011
		c0.111,1.253,0.559,6.081,1.08,11.589c-0.428-0.127-0.887-0.236-1.369-0.291V63.373z M54.316,75.701l-1.078-12.656
		c4.012-1.123,6.967-4.801,6.967-9.186c0-0.607-0.055-1.205-0.164-1.807l11.238,6.24c-0.531,1.035-0.842,2.212-0.842,3.487
		c0,1.313,0.338,2.578,0.93,3.679l-15.18,11.742C55.629,76.609,55.012,76.117,54.316,75.701z M74.443,25.613
		c-1.061,1.483-1.701,3.273-1.701,5.228c0,0.931,0.146,1.828,0.416,2.671l-16.199,7.28c-0.672-2.441-2.643-4.346-5.129-4.943V16.68
		c2.107-0.291,3.98-1.358,5.277-2.913L74.443,25.613z M44.206,13.707c1.248,1.516,3.005,2.573,5.024,2.929v19.088
		c-2.583,0.367-4.702,2.102-5.616,4.472l-15.36-6.914c0.23-0.777,0.351-1.593,0.351-2.441c0-1.987-0.668-3.815-1.746-5.282
		L44.206,13.707z M43.105,42.818c-0.246,0.619-0.41,1.281-0.481,1.965l-8.042-5.803L43.105,42.818z M20.383,39.665
		c2.501-0.17,4.719-1.391,6.229-3.246l16.361,11.835c-0.263,0.372-0.503,0.733-0.723,1.122l-13.569,7.526
		c-1.369-1.647-3.399-2.693-5.688-2.736L20.383,39.665z M44.288,89.43l-6.427,2.211v4.342H19.556V91.74h-1.675l0.92-4.439
		c0.021-0.066,0.038-0.115,0.038-0.17v-0.012l3.618-17.758c0.115,0.012,0.241,0.033,0.361,0.033c1.971,0,3.767-0.761,5.124-1.998
		l15.004,11.589c-0.591,1.144-0.936,2.425-0.936,3.804c0,2.234,0.914,4.254,2.349,5.742L44.288,89.43z M45.415,76.139
		c-0.328,0.225-0.618,0.481-0.914,0.761L29.563,65.322c0.563-1.046,0.876-2.267,0.876-3.537c0-0.919-0.175-1.795-0.466-2.627
		l11.211-6.202c-0.038,0.296-0.049,0.603-0.049,0.903c0,3.793,2.212,7.078,5.436,8.605L45.415,76.139z M48.404,74.792
		c-0.433,0.099-0.87,0.225-1.281,0.394c0.559-5.856,1.04-11.002,1.128-11.982h0.159L48.404,74.792L48.404,74.792z M80.076,91.74
		v4.242H62.922v-4.342l-7.473-2.583c1.789-1.483,2.939-3.755,2.939-6.269c0-1.242-0.285-2.396-0.756-3.421l15.377-11.89
		c1.15,1.008,2.6,1.691,4.199,1.861l3.65,17.879c-0.006,0.01-0.006,0.021-0.006,0.032c0,0.065,0.012,0.147,0.055,0.202l0.887,4.297
		h-1.719V91.74z"/>
</g>
</svg>
